<svg xmlns="http://www.w3.org/2000/svg" viewBox="0 0 64 64">
  <rect width="64" height="64" rx="14" fill="#ffffff"/>
  <g fill="none" stroke="#ff3b0a" stroke-linecap="round" stroke-linejoin="round">
    <path d="M18 18h28a3 3 0 0 1 3 3v22a3 3 0 0 1-3 3H18c-1.6 0-3-1.4-3-3V21c0-1.6 1.4-3 3-3Z" stroke-width="2.6"/>
    <path d="M18 18c-2 4.2-5.8 6.4-9 6 3.2-.4 7 1.8 9 6" stroke-width="2.6"/>
    <path d="M46 18c2 4.2 5.8 6.4 9 6-3.2-.4-7 1.8-9 6" stroke-width="2.6"/>
    <path d="M18 46c-2-4.2-5.8-6.4-9-6 3.2.4 7-1.8 9-6" stroke-width="2.6"/>
    <path d="M46 46c2-4.2 5.8-6.4 9-6-3.2.4-7-1.8-9-6" stroke-width="2.6"/>
    <path d="M24 12c4.4-3.2 11.6-3.2 16 0" stroke-width="2.2"/>
    <path d="M24 52c4.4 3.2 11.6 3.2 16 0" stroke-width="2.2"/>
    <path d="M27 23l5 5 5-5" stroke-width="2.6"/>
    <path d="M32 23v18" stroke-width="2.6"/>
    <path d="M26.5 31h11" stroke-width="2.6"/>
    <path d="M26.5 36h11" stroke-width="2.6"/>
  </g>
</svg>
